<svg width="0" height="0" class="hidden">
  <symbol version="1.0" xmlns="http://www.w3.org/2000/svg" preserveAspectRatio="xMidYMid meet" viewBox="0 0 512.000000 512.000000" id="twitter">
    <g transform="translate(0.000000,512.000000) scale(0.100000,-0.100000)"  stroke="none">
      <path d="M412 5100 c-97 -26 -173 -70 -248 -144 -75 -76 -119 -151 -144 -252
-20 -76 -20 -115 -20 -2144 0 -2029 0 -2068 20 -2144 25 -101 69 -176 144
-252 76 -75 151 -119 252 -144 76 -20 115 -20 2144 -20 2029 0 2068 0 2144 20
101 25 176 69 252 144 75 76 119 151 144 252 20 76 20 115 20 2144 0 2029 0
2068 -20 2144 -26 103 -69 177 -149 256 -79 77 -142 114 -247 140 -76 20 -117
20 -2148 19 -2010 0 -2073 -1 -2144 -19z m1890 -1407 c244 -356 448 -648 454
-649 5 -1 252 281 549 627 297 346 549 639 561 650 19 18 33 19 169 17 l148
-3 -628 -730 c-345 -401 -635 -739 -645 -750 -18 -20 -5 -40 686 -1045 387
-564 704 -1026 704 -1027 0 -2 -233 -3 -518 -3 l-518 0 -473 690 c-261 379
-477 688 -480 685 -4 -2 -272 -312 -596 -689 l-590 -686 -153 0 -154 0 40 48
c22 26 328 382 680 790 l640 744 -586 851 c-321 469 -627 914 -679 990 l-94
137 519 0 520 0 444 -647z"></path>
      <path d="M1252 4088 c44 -67 2142 -3065 2152 -3076 9 -9 67 -12 244 -10 l231
3 -1083 1550 -1084 1550 -237 3 -238 2 15 -22z"></path>
    </g>
  </symbol>
  <symbol version="1.0" xmlns="http://www.w3.org/2000/svg" preserveAspectRatio="xMidYMid meet" viewBox="0 0 512.000000 512.000000" id="instagram">
    <g transform="translate(0.000000,512.000000) scale(0.100000,-0.100000)"  stroke="none">
      <path d="M1210 5113 c-309 -33 -592 -171 -815 -397 -199 -201 -313 -414 -372
-696 -17 -79 -18 -176 -18 -1460 0 -1284 1 -1381 18 -1460 60 -283 174 -496
372 -696 201 -203 420 -321 705 -381 79 -17 176 -18 1460 -18 1536 0 1434 -4
1652 71 197 68 346 162 504 319 202 199 321 420 381 705 17 79 18 176 18 1460
0 1525 4 1424 -66 1636 -66 203 -166 361 -329 524 -198 198 -396 307 -675 373
-89 21 -103 21 -1445 23 -745 0 -1371 -1 -1390 -3z m2335 -921 c322 -90 562
-332 647 -652 l23 -85 0 -895 0 -895 -23 -85 c-85 -323 -329 -567 -652 -652
l-85 -23 -895 0 c-821 0 -901 1 -963 18 -333 85 -582 330 -669 657 l-23 85 0
895 0 895 23 85 c91 344 367 602 710 665 63 11 237 13 952 12 874 -2 875 -2
955 -25z"></path>
      <path d="M1652 3900 c-109 -29 -187 -74 -272 -160 -87 -86 -131 -163 -160
-276 -19 -74 -20 -113 -20 -904 0 -791 1 -830 20 -904 29 -113 73 -190 160
-276 86 -87 163 -131 276 -160 74 -19 113 -20 904 -20 791 0 830 1 904 20 113
29 190 73 276 160 87 86 131 163 160 276 19 74 20 113 20 904 0 791 -1 830
-20 904 -29 113 -73 190 -160 276 -86 87 -163 131 -276 160 -74 19 -112 20
-908 19 -785 0 -835 -1 -904 -19z m1838 -350 c45 -23 80 -80 80 -130 0 -50
-35 -107 -80 -130 -21 -11 -53 -20 -70 -20 -50 0 -107 35 -130 80 -38 74 -16
153 56 196 48 29 92 30 144 4z m-783 -256 c150 -31 275 -99 382 -207 98 -100
162 -209 198 -341 23 -84 23 -288 0 -372 -77 -280 -300 -490 -579 -548 -519
-107 -989 362 -882 882 83 404 481 669 881 586z"></path>
      <path d="M2455 2996 c-83 -20 -146 -56 -211 -120 -177 -178 -177 -455 0 -631
179 -178 455 -178 631 -1 178 179 178 454 1 632 -114 114 -267 158 -421 120z"></path>
    </g>
  </symbol>
  <symbol version="1.0" xmlns="http://www.w3.org/2000/svg" preserveAspectRatio="xMidYMid meet" viewBox="0 0 512.000000 512.000000" id="spotify">
    <g transform="translate(0.000000,512.000000) scale(0.100000,-0.100000)"  stroke="none">
      <path d="M412 5100 c-97 -26 -173 -70 -248 -144 -75 -76 -119 -151 -144 -252
-20 -76 -20 -115 -20 -2144 0 -2029 0 -2068 20 -2144 25 -101 69 -176 144
-252 76 -75 151 -119 252 -144 76 -20 115 -20 2144 -20 2029 0 2068 0 2144 20
101 25 176 69 252 144 75 76 119 151 144 252 20 76 20 115 20 2144 0 2029 0
2068 -20 2144 -26 103 -69 177 -149 256 -79 77 -142 114 -247 140 -76 20 -117
20 -2148 19 -2010 0 -2073 -1 -2144 -19z m2346 -591 c674 -73 1247 -471 1550
-1075 139 -278 202 -549 202 -869 0 -181 -16 -320 -55 -475 -171 -682 -692
-1221 -1364 -1410 -174 -49 -270 -62 -486 -67 -282 -7 -487 25 -725 114 -796
297 -1310 1064 -1277 1908 10 239 50 433 133 645 267 674 885 1147 1604 1229
110 12 306 13 418 0z"></path>
      <path d="M2165 3483 c-242 -6 -514 -40 -709 -89 -124 -30 -151 -41 -188 -72
-111 -94 -63 -280 81 -313 32 -7 67 -2 183 26 265 64 543 91 833 82 506 -17
887 -102 1247 -278 170 -84 200 -91 265 -64 48 20 71 41 94 87 37 73 20 159
-45 216 -46 40 -226 131 -371 187 -304 118 -715 199 -1060 211 -82 2 -170 6
-195 7 -25 1 -85 1 -135 0z"></path>
      <path d="M2000 2804 c-179 -17 -385 -54 -520 -94 -92 -27 -132 -69 -138 -145
-6 -74 26 -125 93 -151 47 -17 47 -17 173 14 239 60 300 66 612 67 229 0 309
-4 405 -19 278 -42 581 -140 780 -252 140 -78 192 -83 260 -23 69 61 68 157
-4 222 -54 49 -320 177 -476 230 -305 104 -564 147 -905 152 -129 1 -255 1
-280 -1z"></path>
      <path d="M2035 2165 c-11 -2 -69 -9 -130 -15 -166 -18 -406 -67 -435 -88 -37
-28 -51 -61 -47 -110 5 -50 34 -86 82 -102 26 -9 57 -6 156 14 215 44 369 59
589 59 373 1 646 -61 938 -214 78 -41 145 -69 163 -69 91 0 147 97 104 180
-39 74 -408 240 -655 293 -184 40 -268 49 -505 52 -132 2 -249 2 -260 0z"></path>
    </g>
  </symbol>
  <symbol version="1.0" xmlns="http://www.w3.org/2000/svg" preserveAspectRatio="xMidYMid meet" viewBox="0 0 512.000000 512.000000" id="mail">
    <g transform="translate(0.000000,512.000000) scale(0.100000,-0.100000)"  stroke="none">
      <path d="M255 4261 c17 -15 542 -477 1168 -1025 l1137 -996 1133 992 c622 546
1148 1007 1167 1025 l35 32 -2335 1 -2335 0 30 -29z"></path>
      <path d="M50 2565 c0 -1044 3 -1574 10 -1570 8 5 1448 1711 1512 1790 16 21 4
33 -743 686 -417 365 -764 666 -769 667 -7 3 -10 -535 -10 -1573z"></path>
      <path d="M4297 3476 c-418 -365 -759 -668 -758 -672 1 -10 1493 -1785 1517
-1805 12 -10 14 201 14 1565 0 867 -3 1576 -7 1576 -5 0 -349 -299 -766 -664z"></path>
      <path d="M974 1753 c-412 -498 -750 -910 -752 -915 -2 -4 1050 -8 2338 -8
1288 0 2340 4 2338 8 -6 16 -1522 1822 -1528 1822 -4 0 -171 -143 -372 -317
-200 -175 -372 -324 -382 -332 -20 -17 -95 -18 -125 -1 -12 6 -186 155 -388
331 -202 175 -370 319 -373 319 -4 0 -344 -408 -756 -907z"></path>
    </g>
  </symbol>
  <symbol version="1.0" xmlns="http://www.w3.org/2000/svg" preserveAspectRatio="xMidYMid meet" viewBox="0 0 512.000000 512.000000" id="facebook">
    <g transform="translate(0.000000,512.000000) scale(0.100000,-0.100000)"  stroke="none">
      <path d="M555 5110 c-211 -29 -391 -160 -485 -355 -70 -146 -65 15 -65 -2195
0 -2210 -5 -2049 65 -2195 64 -133 156 -226 285 -291 146 -72 69 -68 1193 -71
l1012 -4 0 881 0 880 -320 0 -320 0 0 400 0 400 319 0 320 0 3 408 c4 388 5
411 27 482 101 337 344 580 681 681 71 22 94 23 483 27 l407 3 0 -399 0 -400
-262 -3 c-241 -4 -266 -6 -297 -24 -19 -11 -43 -33 -55 -48 -20 -27 -21 -41
-24 -378 l-3 -349 401 0 c379 0 402 -1 396 -17 -4 -10 -75 -190 -159 -400
l-152 -383 -242 0 -243 0 0 -881 0 -880 533 4 c588 4 574 3 712 71 129 65 221
158 285 291 70 146 65 -15 65 2195 0 2210 5 2049 -65 2195 -64 133 -156 226
-285 291 -151 75 46 68 -2165 70 -1092 1 -2012 -2 -2045 -6z"></path>
    </g>
  </symbol>
</svg>